<svg width="230" height="153" xmlns="http://www.w3.org/2000/svg">
	<g fill="#FFFFFF" fillRule="evenodd">
		<path d="M122.444 85.081c-.145.067-.194.312-.101.657.1.327.65 1.761.65 1.761.387 1.079 1.043 2.328 1.925 2.968.942.679 1.43.44 1.62.367.139-.079.744-.456.528-1.438-.23-1.04-.357-1.32-.546-1.7-.183-.38-.434-.615-.582-.55-.088.015-.014.357-.014.572-.008.378-.137.663-.449.802-.275.12-.952.368-1.473-.574-.427-.759-.804-1.76-.962-2.17-.13-.32-.323-.708-.524-.708-.02 0-.038.007-.072.013zm-14.822 2.793l3.15 2.66 3.061-3.78-3.146-2.668-3.065 3.788zm.705-6.61l3.142 2.66 3.073-3.766-3.153-2.678-3.062 3.784zm20.111-9.316l3.697 1.799 2.043-4.449-3.692-1.784-2.048 4.434zM109.29 68.83c1.566 3.738 3.936 6.981 6.66 9.367.283-1.957.59-3.337.878-4.32-2.779-2.033-4.77-4.23-6.046-6.427l-1.492 1.38zm7.022-4.767l3.698 1.783 2.045-4.443-3.695-1.784-2.048 4.444zM98.454 46.357s-2.307 1.674-3.236 3.89c-.569 1.357-.53 2.824-.21 3.534.329.708 1.097 1.385 2.098.57.7-.57 1.008-1.368 1.16-2.051.093-.405.125-.661.125-.86 0-.25-.081-.46-.314-.404-.667.226-.27 1.144-.747 1.589-.361.225-1.302.103-1.487-.844-.183-.948.53-2.167 1.178-2.974.648-.81 1.788-1.87 1.788-1.87s.813-.687.538-1.027c-.013-.02-.042-.029-.075-.029-.238 0-.818.476-.818.476zm22.729-2.458c-.28.304-1.593 1.776-2.857 3.192a2521.49 2521.49 0 0 0-2.444 2.73c-.54.613-.823 1.215-.752 1.54l.326 1.647c.087-.306.432-.865.813-1.297.27-.304 1.585-1.784 2.853-3.186 1.124-1.263 2.203-2.461 2.443-2.74.543-.597.825-1.208.75-1.526l-.334-1.659c-.078.313-.416.866-.798 1.3zm-30.8 23.971c.453-1.463 1.27-2.775 2.691-3.598 2.333-1.114 3.247 1.737 3.247 1.737-.163 1.93-1.598 2.943-3.195 2.943-.936 0-1.935-.357-2.743-1.082zm17.362-46.31c-1.583.043-2.83 1.402-2.785 3.02.05 1.626 1.369 2.912 2.954 2.86.867-.025 1.617-.448 2.133-1.065l.06-.073c.338 2.342-.758 4.213-3.31 6.378-2.611 2.248-8.72 5.18-13.062 8.695-6.112 4.94-7.556 10.319-7.927 14.673-.16 1.944.117 4.499.637 6.611a28.568 28.568 0 0 0 1.59 4.693s.05.085.124.23c-.155 2.882.129 7.916 1.718 11.718 2.136 4.903 5.974 8.918 11.48 7.738 5.558-1.335 6.18-10.57 6.813-17.313.165-1.104.332-1.3.663-1.584.893-.774 3.06-2.854 4.092-3.78.64-.575 1.194-1.15 1.554-1.884.46-.893.216-2.082.216-2.082l-.623-4.443c-.154.632-.91 1.515-1.972 2.608-1.107 1.143-4.057 3.73-4.326 4.014-.266.276-1.227.988-1.638 4.38-1.066 9.223-2.844 13.577-6.035 15.048-.843.406-1.787.595-2.836.622-5.85-.059-7.388-7.34-7.361-11.33.004-.235.009-.477.022-.695 1.358 1.87 3.364 3.724 5.84 3.338 3.95-.615 2.72-7.422 2.146-9-.558-1.589-2.09-6.328-5.4-6.093-2.347.163-3.44 2.972-3.937 5.351-.452-1.88-.694-4.084-.547-5.806.349-4.118 1.728-9.261 7.595-14.327 4.18-3.606 8.914-6.181 11.546-8.306 1.676-1.345 2.717-2.855 3.302-4.273-.165 1.374-.498 2.863-1.143 4.598-2.43 6.537-9.807 17.33-9.906 32.585 0 4.688.43 8.742 1.161 12.21.4-.28.775-.646 1.13-1.084a40.444 40.444 0 0 1-.808-8.154c0-15.22 7.326-25.999 9.716-32.522 1.25-3.436 1.282-5.94 1.282-8.413 0-3.034-.662-6.2-1.28-7.436-.669-1.183-1.498-1.708-2.738-1.708h-.14zM114.938.69c-1.47 1.053-2.698 3.443-2.69 7.093.013 2.244.627 4.93 2.32 7.936-2.273 3.166-2.69 6.084-1.726 8.874.733 2.12 1.106 2.67 1.44 3.942.838 3.229-.091 7.103-2.583 13.075-2.02 4.87-4.647 9.96-4.647 16.162.013 1.423.13 2.806.327 4.165.234-.234.734-.713 1.345-1.285-.3-4.858 1.594-9.745 3.922-14.134 3.386-6.412 3.803-12.934 3.151-16.504 2.377 2.595 6.385 6.474 8.726 10.452.789 1.34 1.264 2.607 1.38 3.897.11 3.145-.857 5.398-2.747 7.61-1.599 1.865-1.045 3.513-.978 3.836.12.53.774 2.563 1.232 3.893 1.773-3.542 6.666-5.538 8.884-8.482.508 3.627-2.165 7.076-4.148 9.389-.474.521-.99 1.056-1.577 1.633-3.756 3.664-6.221 6.183-7.527 8.523-.335.519-.876 1.683-1.147 2.58-.383 1.12-.872 3.022-1.281 6.372-.311 1.976-.662 4.336-.776 5.388-.254 2.393-.962 6.192-3.84 7.274a2.453 2.453 0 0 1-.471.137v.013c-2.746.611-5.556-1.735-7.6-5.954a6.87 6.87 0 0 1-1.38.843c2.768 6.676 6.933 9.744 10.581 9.744 2.764 0 4.948-1.422 5.647-5.569.363-2.09.618-4.407.846-6.656.113-1.082.635-7.193 1.6-9.41 1.19-2.486 3.797-4.891 7.68-8.973 2.398-2.535 3.706-4.646 4.387-6.345 2.26-4.225-.54-14.27-1.083-16.075-.017-.065-.023-.08-.06-.08-.055 0-.072.015-.114.09a.12.12 0 0 1-.02.041c-1 1.663-2.786 3.18-4.445 4.42.934-2.616.682-4.605.31-6.278v-.012c-.025-.096-.048-.196-.073-.291l-.004.01c-1.68-6.665-8.362-12.599-11.373-16.019-3.915-4.43-2.582-7.285-1.14-9.099.272.406.552.839.869 1.273 5.325 7.366 15.354 19.055 20.61 30.19 1.336 2.81 2.358 5.575 2.92 8.21 2.07 11.532-5.82 23.258-17.647 19.961h-.004a2.48 2.48 0 0 1-.228-.065c-.32 1.025-.623 2.66-.921 4.894 1.792.776 3.735 1.244 5.62 1.327l.003.003c.137.003.277.007.414.012 9.719.108 17.324-7.316 15.926-22.896 0 0-.584-6.481-3.87-13.307-5.258-11.991-14.985-23.856-20.954-31.52-1.895-2.436-3.008-4.542-3.568-6.362-1.118-3.543-.407-6.288 1.026-7.49.309-.265.694-.562 1.045-.74.214-.115.132-.37-.02-.398-.033 0-.081-.009-.132-.009-.207 0-.616.095-1.437.691zm-10.92 25.92c-1.587.05-2.838 1.403-2.785 3.042.04 1.617 1.365 2.887 2.956 2.846 1.59-.043 2.837-1.411 2.786-3.03-.045-1.592-1.32-2.857-2.863-2.857h-.095z"/>
		<g transform="translate(0 105.248)">
			<path d="M0 14.217c0-.61.178-1.206.534-1.788.357-.581.913-1.105 1.67-1.57.756-.465 1.727-.865 2.913-1.2 1.186-.333 2.6-.558 4.245-.675v6.825h3.142v2.377H7.616a1.37 1.37 0 0 1-.404-.393c-.109-.16-.2-.32-.273-.48a3.384 3.384 0 0 1-.174-.545 1.487 1.487 0 0 1-.437.72c-.189.174-.462.334-.818.48-.357.145-.84.218-1.451.218-1.484 0-2.532-.353-3.143-1.058-.61-.705-.916-1.675-.916-2.91zm1.811-8.395c0-.465.164-.861.491-1.188a1.62 1.62 0 0 1 1.19-.491c.45 0 .832.164 1.145.49.313.328.47.724.47 1.19 0 .45-.157.831-.47 1.144a1.56 1.56 0 0 1-1.146.469c-.465 0-.862-.156-1.189-.47a1.522 1.522 0 0 1-.49-1.144zm.83 8.003v.697c0 .422.123.742.37.96.248.218.647.327 1.2.327h2.51v-4.34c-.61.117-1.167.262-1.67.437a7.332 7.332 0 0 0-1.276.567c-.349.203-.622.421-.818.654-.197.233-.302.465-.317.698zm3.491-8.003c0-.465.164-.861.491-1.188a1.62 1.62 0 0 1 1.19-.491c.45 0 .832.164 1.145.49.313.328.47.724.47 1.19 0 .45-.157.831-.47 1.144a1.56 1.56 0 0 1-1.146.469c-.465 0-.862-.156-1.189-.47a1.521 1.521 0 0 1-.491-1.144z"/>
			<polygon points="11.9584787 15.8089521 19.8586333 15.8089521 19.8586333 18.1857462 11.9584787 18.1857462"/>
			<path d="M19.313 15.809h4.103V9.42l2.771-.785v7.174h3.514v2.377H19.313v-2.377zm1.593 5.931c0-.465.164-.861.49-1.188a1.62 1.62 0 0 1 1.19-.491c.451 0 .833.164 1.146.49.313.328.47.724.47 1.189 0 .45-.157.832-.47 1.145a1.56 1.56 0 0 1-1.146.469 1.66 1.66 0 0 1-1.19-.47 1.523 1.523 0 0 1-.49-1.144zm4.32 0c0-.465.165-.861.492-1.188a1.62 1.62 0 0 1 1.19-.491c.45 0 .832.164 1.145.49.313.328.47.724.47 1.189 0 .45-.157.832-.47 1.145a1.56 1.56 0 0 1-1.146.469 1.66 1.66 0 0 1-1.19-.47 1.523 1.523 0 0 1-.49-1.144z"/>
			<path d="M39.804 16.289c-.029.378-.196.858-.501 1.439-.583 1.192-1.135 1.788-1.66 1.788-.188 0-.392-.051-.61-.153a29.091 29.091 0 0 1-1.779-.807c-.75-.363-1.655-.814-2.716-1.351-.248.436-.532.72-.852.85-.247.087-.655.13-1.222.13h-1.418V15.81h1.614a26.023 26.023 0 0 1 1.375-2.737c.48-.82.957-1.519 1.43-2.093.472-.574.93-1.021 1.375-1.341.443-.32.854-.48 1.233-.48.96 0 1.76.684 2.4 2.05.19.407.379.92.568 1.537.188.618.392 1.363.61 2.235.131.597.182 1.033.153 1.309zm-2.444.37c-.174-1.308-.403-2.366-.687-3.172-.284-.807-.637-1.21-1.058-1.21-.146 0-.4.167-.764.5-.218.219-.448.52-.688.906-.24.385-.44.73-.6 1.036.611.465 1.244.861 1.899 1.188a11.05 11.05 0 0 0 1.898.752zM42.925 7.109c.116-.073.302-.16.556-.262.255-.102.514-.21.775-.327.306-.131.633-.262.982-.393.437.567.862 1.29 1.277 2.17.415.88.793 1.788 1.135 2.726.341.937.644 1.835.905 2.693.262.858.466 1.548.611 2.071.32-.043.579-.138.775-.284.196-.144.35-.316.459-.512.108-.196.181-.41.218-.643a4.56 4.56 0 0 0 .054-.698V4.23l2.793-.828V14.5c0 .465.12.8.36 1.002.24.204.557.306.95.306h1.746v2.377h-.982c-.699 0-1.295-.131-1.79-.393-.494-.261-.865-.61-1.113-1.046-.335.421-.804.766-1.407 1.035-.604.27-1.415.404-2.434.404h-7.66l.765-2.377h4.56a39.39 39.39 0 0 0-.458-1.777 27.477 27.477 0 0 0-1.724-4.525 21.899 21.899 0 0 0-1.353-2.398"/>
			<path d="M55.866 15.809h3.491c-.29-.378-.483-.84-.578-1.385a10.097 10.097 0 0 1-.141-1.733c0-1.178.476-2.112 1.429-2.802.952-.69 2.266-1.058 3.939-1.101.61-.03 1.302.007 2.073.109.77.102 1.506.218 2.204.349v2.442c-.218-.058-.49-.124-.818-.197a16.142 16.142 0 0 0-1.07-.196 19.632 19.632 0 0 0-1.2-.142 13.94 13.94 0 0 0-1.211-.054c-.32 0-.619.022-.895.065-.276.044-.52.131-.73.262-.212.13-.376.313-.492.545-.116.233-.175.531-.175.894 0 .785.077 1.407.23 1.865.152.457.353.817.6 1.079h5.849v2.377H55.866v-2.377M70.727 3.598c.363.334.797.694 1.299 1.08.502.385 1.018.799 1.55 1.242.53.444 1.06.916 1.592 1.418.53.501 1.015 1.035 1.451 1.602.102-.116.153-.545.153-1.286V4.187l2.684-.873V7.72c0 1.163-.436 2.246-1.309 3.25 1.207 1.86 1.811 3.517 1.811 4.97v2.247h-9.907v-2.944a23.926 23.926 0 0 0 1.56-1.101c.502-.385.971-.763 1.408-1.134.436-.37.832-.727 1.189-1.069.356-.341.658-.635.906-.883a11.676 11.676 0 0 0-1.353-1.57c-.495-.48-.997-.923-1.506-1.33a35.918 35.918 0 0 0-1.495-1.134 28.28 28.28 0 0 1-1.299-.98l1.266-2.443zm6.59 20.868l-5.237 1.548V24.64l1.44-.436a.867.867 0 0 1-.425-.207 1.525 1.525 0 0 1-.316-.393 2.26 2.26 0 0 1-.208-.49 1.66 1.66 0 0 1-.076-.458c0-.451.102-.854.305-1.21.204-.357.462-.662.775-.916a3.45 3.45 0 0 1 1.015-.578c.363-.13.705-.196 1.026-.196.334 0 .654.054.96.163.305.11.603.353.894.73a69.78 69.78 0 0 0-1.288 1.068 1.297 1.297 0 0 0-.981-.413c-.379 0-.648.102-.808.305-.16.203-.24.407-.24.61a.91.91 0 0 0 .164.524c.11.16.244.294.404.403a2.359 2.359 0 0 0 .96.382l1.637-.48v1.418zm.437-8.657a9.587 9.587 0 0 0-.48-1.385 14.366 14.366 0 0 0-.393-.828 6.623 6.623 0 0 0-.48-.796c-.305.305-.597.585-.873.84-.276.254-.564.5-.862.74-.298.24-.619.473-.96.698-.342.226-.724.47-1.146.731h5.194z"/>
			<polyline points="84.9557388 3.40165037 84.9557388 18.1857462 82.1842246 18.1857462 82.1842246 4.18664661 84.9557388 3.40165037"/>
			<path d="M102.436 14.653c0 .684-.131 1.262-.393 1.734a3.285 3.285 0 0 1-1.091 1.166c-.466.306-1.022.527-1.67.665-.647.138-1.356.208-2.127.208-.51 0-1.037-.044-1.583-.131a4.801 4.801 0 0 1-1.483-.48 3.197 3.197 0 0 1-1.103-.938c-.29-.392-.436-.894-.436-1.504 0-1.134.236-2.155.71-3.064.472-.908 1.152-1.69 2.04-2.344l-.764-.327 1.07-1.723a11.93 11.93 0 0 1 2.836.949c.844.414 1.56.909 2.15 1.483a6.196 6.196 0 0 1 1.364 1.951c.32.727.48 1.513.48 2.355zm-9.559-8.918c0-.523.186-.97.557-1.341a1.83 1.83 0 0 1 1.342-.556c.262 0 .505.05.73.152.227.102.423.237.59.404.167.167.298.367.393.6.094.232.142.48.142.74 0 .51-.182.946-.546 1.31-.363.363-.8.544-1.31.544-.26 0-.508-.047-.741-.141a1.788 1.788 0 0 1-.6-.393 1.963 1.963 0 0 1-.404-.589 1.751 1.751 0 0 1-.153-.73zm6.525 8.853c0-.175-.029-.429-.087-.763a4.37 4.37 0 0 0-.327-1.036 3.949 3.949 0 0 0-.644-.992 2.23 2.23 0 0 0-1.037-.654 2.5 2.5 0 0 0-.72.621c-.218.27-.407.549-.567.84-.16.29-.287.581-.382.872-.095.29-.142.53-.142.72 0 .29.051.537.153.74.101.205.23.371.382.502s.327.226.523.284a2.1 2.1 0 0 0 .6.087c.64 0 1.175-.098 1.605-.294.429-.196.643-.505.643-.927zM97.33 5.735c0-.523.186-.97.557-1.341a1.83 1.83 0 0 1 1.342-.556c.262 0 .505.05.731.152.225.102.422.237.59.404.166.167.297.367.392.6.094.232.142.48.142.74 0 .51-.182.946-.546 1.31-.364.363-.8.544-1.31.544-.26 0-.509-.047-.741-.141a1.788 1.788 0 0 1-.6-.393 1.963 1.963 0 0 1-.404-.589 1.751 1.751 0 0 1-.153-.73zM108.022 8.504c.219 1.178.379 2.355.48 3.533.102 1.177.175 2.275.219 3.292h2.422v2.857h-2.4a7.367 7.367 0 0 1-.12.894 4.9 4.9 0 0 1-.339 1.068 4.96 4.96 0 0 1-.676 1.09c-.291.364-.673.69-1.146.982-.473.29-1.051.523-1.735.698-.684.174-1.506.261-2.466.261l-.502-1.788c.757-.014 1.426-.152 2.008-.414.247-.117.491-.262.73-.436.241-.175.456-.393.645-.654.189-.262.341-.575.458-.938.116-.364.175-.785.175-1.265a87.06 87.06 0 0 0-.099-4.077 19.309 19.309 0 0 0-.643-4.122l2.99-.98"/>
			<polygon points="110.597453 15.3292321 118.49736 15.3292321 118.49736 18.1854984 110.597453 18.1854984"/>
			<path d="M126.245 8.46v9.726h-8.293v-2.857h4.932V9.42l3.36-.96zm-7.835 13.498c0-.523.186-.97.557-1.34a1.83 1.83 0 0 1 1.342-.557c.262 0 .505.05.73.153.226.101.423.236.59.403.167.167.298.367.393.6.094.232.142.48.142.741 0 .509-.183.945-.546 1.308-.364.363-.8.546-1.31.546a1.96 1.96 0 0 1-.741-.142 1.797 1.797 0 0 1-.6-.393 1.96 1.96 0 0 1-.404-.588 1.753 1.753 0 0 1-.153-.73zm4.452 0c0-.523.185-.97.556-1.34a1.83 1.83 0 0 1 1.343-.557c.261 0 .505.05.73.153.226.101.422.236.59.403.167.167.298.367.393.6.094.232.141.48.141.741 0 .509-.182.945-.545 1.308-.364.363-.8.546-1.31.546a1.96 1.96 0 0 1-.741-.142 1.797 1.797 0 0 1-.6-.393 1.96 1.96 0 0 1-.404-.588 1.753 1.753 0 0 1-.153-.73z"/>
			<path d="M132.66 8.504c.218 1.178.378 2.355.48 3.533.102 1.177.175 2.275.218 3.292h2.423v2.857h-2.4a7.257 7.257 0 0 1-.12.894 4.914 4.914 0 0 1-.34 1.068 4.96 4.96 0 0 1-.676 1.09c-.29.364-.673.69-1.145.982-.473.29-1.051.523-1.735.698-.684.174-1.506.261-2.466.261l-.502-1.788c.757-.014 1.425-.152 2.008-.414.247-.117.49-.262.73-.436.24-.175.455-.393.645-.654.188-.262.341-.575.458-.938.116-.364.174-.785.174-1.265a86.72 86.72 0 0 0-.098-4.077 19.309 19.309 0 0 0-.644-4.122l2.99-.98zm-3.797-2.747c0-.524.185-.97.556-1.341a1.83 1.83 0 0 1 1.343-.556c.261 0 .505.05.73.152.226.102.422.237.59.404.167.167.298.367.393.6.094.232.141.479.141.74 0 .51-.182.946-.545 1.309-.364.363-.8.545-1.31.545-.262 0-.509-.047-.742-.142a1.782 1.782 0 0 1-.6-.392 1.957 1.957 0 0 1-.403-.589 1.747 1.747 0 0 1-.153-.73z"/>
			<path d="M150.075 18.186h-14.949v-2.857h9.34c-.378-.755-.702-1.388-.97-1.897-.27-.509-.514-.912-.732-1.21-.218-.298-.429-.509-.633-.632a1.324 1.324 0 0 0-.698-.186c-.379 0-.706.095-.982.284-.277.189-.597.509-.96.96l-1.899-1.68c.233-.349.517-.676.851-.981a6.233 6.233 0 0 1 2.346-1.33 4.43 4.43 0 0 1 1.298-.196c.48 0 .924.105 1.332.316.407.21.815.549 1.222 1.014.407.465.847 1.072 1.32 1.82.473.75 1.015 1.654 1.626 2.715.204.35.444.604.72.763.277.16.575.24.895.24h.873v2.857zm-9.515 3.663c0-.523.185-.97.556-1.341a1.83 1.83 0 0 1 1.343-.556c.262 0 .505.05.73.153.226.101.423.236.59.403.167.167.298.367.393.6.094.232.142.48.142.741 0 .509-.182.945-.546 1.308-.364.364-.8.546-1.31.546-.261 0-.509-.048-.742-.142a1.8 1.8 0 0 1-.6-.393 1.973 1.973 0 0 1-.403-.588 1.748 1.748 0 0 1-.153-.73z"/>
			<polyline points="155.683164 3.22720676 155.683164 18.1857462 149.441802 18.1857462 149.441802 15.3292321 152.322431 15.3292321 152.322431 4.18664661 155.683164 3.22720676"/>
			<polyline points="161.596935 3.22720676 161.596935 18.1857462 158.236449 18.1857462 158.236449 4.18664661 161.596935 3.22720676"/>
			<path d="M170.326 14.217c0-.61.178-1.206.535-1.788.356-.581.912-1.105 1.669-1.57.756-.465 1.727-.865 2.913-1.2 1.186-.333 2.6-.558 4.245-.675v6.825h3.142v2.377h-4.888a1.37 1.37 0 0 1-.403-.393c-.11-.16-.2-.32-.273-.48a3.384 3.384 0 0 1-.175-.545 1.487 1.487 0 0 1-.436.72c-.19.174-.462.334-.819.48-.356.145-.84.218-1.451.218-1.484 0-2.532-.353-3.143-1.058-.61-.705-.916-1.675-.916-2.91zm1.811-8.395c0-.465.164-.861.491-1.188a1.62 1.62 0 0 1 1.19-.491c.45 0 .832.164 1.145.49.313.328.47.724.47 1.19 0 .45-.157.831-.47 1.144a1.56 1.56 0 0 1-1.145.469c-.466 0-.862-.156-1.19-.47a1.522 1.522 0 0 1-.49-1.144zm.83 8.003v.697c0 .422.123.742.37.96.248.218.647.327 1.2.327h2.51v-4.34c-.61.117-1.167.262-1.67.437a7.332 7.332 0 0 0-1.276.567c-.349.203-.622.421-.818.654-.197.233-.302.465-.317.698zm3.491-8.003c0-.465.164-.861.491-1.188a1.62 1.62 0 0 1 1.19-.491c.45 0 .832.164 1.145.49.313.328.47.724.47 1.19 0 .45-.157.831-.47 1.144a1.56 1.56 0 0 1-1.146.469c-.465 0-.862-.156-1.189-.47a1.521 1.521 0 0 1-.49-1.144z"/>
			<polygon points="182.284592 15.8089521 190.184003 15.8089521 190.184003 18.1857462 182.284592 18.1857462"/>
			<path d="M202.995 18.186h-13.029v-2.377h7.289v-.654c0-.422-.116-.876-.349-1.363a6.154 6.154 0 0 0-.971-1.428 9.716 9.716 0 0 0-1.495-1.341 9.935 9.935 0 0 0-1.92-1.102l.174-3.75 8.445-2.857-.698 2.9-5.5 1.68a12.29 12.29 0 0 1 1.758 1.482 15.66 15.66 0 0 1 1.495 1.745c.465.654.858 1.319 1.178 1.995.32.676.48 1.356.48 2.039v.654h3.143v2.377"/>
			<path d="M202.667 15.809h4.102V9.42l2.772-.785v7.174h3.513v2.377h-10.387v-2.377zm3.797 5.91c0-.466.164-.862.49-1.19a1.62 1.62 0 0 1 1.19-.49c.451 0 .833.164 1.146.49.313.328.47.724.47 1.19 0 .45-.157.831-.47 1.144a1.561 1.561 0 0 1-1.146.469 1.66 1.66 0 0 1-1.19-.469 1.523 1.523 0 0 1-.49-1.145z"/>
			<path d="M212.4 15.809h3.579V9.485l2.618-.915v7.239h2.881V9.485l2.619-.915v7.239h2.859V9.485l2.618-.915v9.616H212.4v-2.377zm6.46-9.987c0-.465.163-.861.49-1.188a1.62 1.62 0 0 1 1.19-.491c.45 0 .832.164 1.145.49.313.328.47.724.47 1.19 0 .45-.157.831-.47 1.144a1.56 1.56 0 0 1-1.145.469c-.466 0-.862-.156-1.19-.47a1.522 1.522 0 0 1-.49-1.144zm2.073-4.143c0-.465.163-.861.49-1.188a1.62 1.62 0 0 1 1.19-.491c.45 0 .833.164 1.146.49.312.328.469.724.469 1.189 0 .45-.157.836-.47 1.156a1.54 1.54 0 0 1-1.145.48c-.466 0-.862-.16-1.19-.48a1.557 1.557 0 0 1-.49-1.156zm2.247 4.143c0-.465.164-.861.491-1.188a1.62 1.62 0 0 1 1.19-.491c.45 0 .832.164 1.145.49.313.328.47.724.47 1.19 0 .45-.157.831-.47 1.144a1.56 1.56 0 0 1-1.145.469c-.466 0-.862-.156-1.19-.47a1.522 1.522 0 0 1-.49-1.144z"/>
		</g>
		<path d="M19 145.625h-3.502v-8.872h-2.87v11.424H19v-2.552zm2.54 1.827c0 1.745-.618 2.38-1.984 1.98a1.022 1.022 0 0 1-.228-.079l-.675 2.48c.152.078.304.14.466.207 3.184 1.22 5.274-.592 5.274-3.767v-11.52h-2.854v10.699zm30.322-3.68h3.725v-2.442h-3.725v-2.073h4.325v-2.504h-7.165v11.424h7.545v-2.428h-4.705v-1.977zm9.84 0h3.72v-2.442h-3.72v-2.073h4.324v-2.504h-7.168v11.424h7.55v-2.428h-4.705v-1.977zm-57.916-7.019L0 148.177h2.856l.644-2.093h3.656l.62 2.093h3.032l-3.865-11.424H3.786zm.519 6.725l1.053-3.623 1.054 3.623H4.305zm25.568-6.725l-3.788 11.424h2.858l.645-2.093h3.654l.622 2.093H36.9l-3.87-11.424h-3.157zm.523 6.725l1.047-3.623 1.055 3.623h-2.102zm54.774-6.725h-3.153l-3.793 11.424h2.866l.639-2.093h3.658l.621 2.093h3.032l-3.87-11.424zm-2.605 6.725l1.051-3.623 1.054 3.623h-2.105zm-6.662.558c-.418-1.013-.568-1.219-.967-1.41a.885.885 0 0 0 .193-.08c1.241-.59 1.841-2.063 1.368-3.7-.385-1.347-1.398-2.093-3.316-2.093H68.68v11.424h2.855v-4.27h.655c.46 0 .74.206.98.813l.151.362.083.206 1.079 2.889h2.962l-1.389-3.744c-.052-.145-.091-.267-.152-.397zm-2.39-2.984c-.163.204-.396.298-.941.352h-1.096v-2.147h.85c.067 0 .134.015.203.015.437.014.615.069.809.192.48.285.588 1.064.175 1.588zm-27-1.384v-2.915h-7.668v2.504h3.942l-4.063 5.998v2.922h7.873v-2.523H42.46l4.051-5.986z"/>
		<polyline points="97.9224958 136.706354 100.534135 144.594104 100.565448 144.594104 103.03618 136.706354 106.492147 136.706354 106.492147 148.176381 104.19345 148.176381 104.19345 140.047757 104.162137 140.047757 101.425433 148.176381 99.5332428 148.176381 96.7965385 140.128176 96.7654121 140.128176 96.7654121 148.176381 94.4665283 148.176381 94.4665283 136.706354 97.9224958 136.706354"/>
		<polyline points="117.000584 136.706354 117.000584 138.826923 111.105198 138.826923 111.105198 141.284676 116.515795 141.284676 116.515795 143.24479 111.105198 143.24479 111.105198 146.056004 117.125649 146.056004 117.125649 148.176381 108.650123 148.176381 108.650123 136.706354 117.000584 136.706354"/>
		<path d="M123.6 136.706c.719 0 1.389.118 2.01.354.62.236 1.156.589 1.61 1.06.453.471.808 1.06 1.063 1.767.256.707.383 1.537.383 2.49 0 .836-.104 1.607-.312 2.313a5.139 5.139 0 0 1-.947 1.832 4.447 4.447 0 0 1-1.579 1.213c-.63.295-1.374.441-2.228.441h-4.817v-11.47h4.817zm-.172 9.35c.354 0 .698-.059 1.032-.177.333-.117.63-.313.891-.586.26-.273.47-.629.626-1.068.156-.44.234-.975.234-1.607 0-.578-.054-1.1-.164-1.566a3.163 3.163 0 0 0-.54-1.197 2.4 2.4 0 0 0-.992-.763c-.413-.177-.92-.265-1.525-.265h-1.752v7.229h2.19z"/>
		<polygon points="130.370791 136.706354 132.825866 136.706354 132.825866 148.176381 130.370791 148.176381"/>
		<path d="M140.551 136.706l4.175 11.47h-2.549l-.844-2.554h-4.176l-.875 2.554h-2.47l4.221-11.47h2.518zm.14 7.037l-1.407-4.21h-.031l-1.454 4.21h2.893z"/>
		<polyline points="152.482497 136.706354 157.142704 144.401482 157.17383 144.401482 157.17383 136.706354 159.472714 136.706354 159.472714 148.176381 157.017452 148.176381 152.373088 140.49772 152.341775 140.49772 152.341775 148.176381 150.043078 148.176381 150.043078 136.706354 152.482497 136.706354"/>
		<polyline points="169.981151 136.706354 169.981151 138.826923 164.085765 138.826923 164.085765 141.284676 169.496361 141.284676 169.496361 143.24479 164.085765 143.24479 164.085765 146.056004 170.106216 146.056004 170.106216 148.176381 161.63069 148.176381 161.63069 136.706354 169.981151 136.706354"/>
		<polyline points="170.888105 138.826923 170.888105 136.706354 180.036298 136.706354 180.036298 138.826923 176.689739 138.826923 176.689739 148.176381 174.234664 148.176381 174.234664 138.826923 170.888105 138.826923"/>
		<polyline points="189.51253 148.176381 187.620341 140.36905 187.589028 140.36905 185.728151 148.176381 183.241763 148.176381 180.286055 136.706354 182.741317 136.706354 184.508442 144.513877 184.539754 144.513877 186.478727 136.706354 188.777611 136.706354 190.68527 144.609996 190.716583 144.609996 192.546334 136.706354 194.95444 136.706354 191.951949 148.176381 189.51253 148.176381"/>
		<path d="M195.97 140.104c.25-.733.61-1.374 1.08-1.92a4.944 4.944 0 0 1 1.728-1.285c.683-.31 1.451-.466 2.306-.466.866 0 1.637.156 2.315.466.677.31 1.25.74 1.72 1.285.469.546.828 1.187 1.079 1.92.25.734.375 1.529.375 2.386 0 .835-.125 1.614-.375 2.337a5.618 5.618 0 0 1-1.08 1.888 4.964 4.964 0 0 1-1.72 1.26c-.677.306-1.448.459-2.314.459-.855 0-1.623-.153-2.306-.458a4.945 4.945 0 0 1-1.728-1.261 5.618 5.618 0 0 1-1.08-1.888 7.1 7.1 0 0 1-.375-2.337c0-.857.125-1.652.376-2.386zm2.245 3.791c.11.456.284.865.524 1.23.24.363.552.655.938.875.385.22.855.329 1.407.329.553 0 1.022-.11 1.408-.33a2.71 2.71 0 0 0 .938-.875c.24-.364.414-.773.524-1.229.11-.455.164-.923.164-1.405 0-.504-.055-.99-.164-1.462a3.923 3.923 0 0 0-.524-1.261 2.688 2.688 0 0 0-.938-.884c-.386-.22-.855-.33-1.408-.33-.552 0-1.022.11-1.407.33-.386.22-.699.514-.938.884-.24.369-.415.79-.524 1.26-.11.472-.165.96-.165 1.463 0 .482.055.95.165 1.405zM214.267 136.706c.5 0 .95.083 1.353.25a3.11 3.11 0 0 1 1.032.682c.286.29.505.624.656 1.004.151.38.227.79.227 1.229 0 .675-.138 1.259-.414 1.751-.276.493-.727.868-1.353 1.125v.032c.302.086.553.217.75.393.199.177.36.386.486.627.125.24.216.506.273.795.057.29.096.578.117.868.01.182.021.396.032.642.01.247.028.498.054.755s.068.5.126.731c.057.23.143.426.258.586h-2.456c-.135-.363-.219-.797-.25-1.3a19.921 19.921 0 0 0-.14-1.446c-.084-.6-.261-1.04-.532-1.318s-.714-.418-1.33-.418h-2.455v4.482h-2.455v-11.47h6.021zm-.876 5.19c.563 0 .985-.13 1.267-.386.281-.257.422-.675.422-1.253 0-.557-.14-.961-.422-1.213-.282-.252-.704-.378-1.267-.378h-2.69v3.23h2.69z"/>
		<polyline points="221.991766 136.706354 221.991766 141.461406 226.354873 136.706354 229.419803 136.706354 225.056882 141.236616 229.841781 148.176381 226.761195 148.176381 223.399166 143.019809 221.991766 144.481709 221.991766 148.176381 219.536691 148.176381 219.536691 136.706354 221.991766 136.706354"/>
	</g>
</svg>
